# xmcd
#
# Track frame offsets:
#	150
#	14175
#	30796
#	51202
#	71991
#	92585
#	103654
#	119127
#	131886
#	146866
#	162354
#	176741
#	190515
#	204526
#
# Disc length: 2908 seconds
#
# Revision: 1
# Processed by: cddbd v1.5.2PL0 Copyright (c) Steve Scherf et al.
# Submitted via: audiograbber 1.83.01
#
DISCID=d40b5a0e
DTITLE=Urban Djin - Enabling Angel
DYEAR=2004
DGENRE=Country
TTITLE0=Saddle Darlin'
TTITLE1=Enabling Angel
TTITLE2=Rainmaker
TTITLE3=Twilight Is Calling
TTITLE4=Lonesome Cowboy
TTITLE5=Suddenly Sexy
TTITLE6=Twisters and Trailers
TTITLE7=Rose Colored Glasses
TTITLE8=Maura You
TTITLE9=End of the Trail
TTITLE10=Stranger in My Arms
TTITLE11=Killin' the Bottle
TTITLE12=Together
TTITLE13=Last Call
EXTD=
EXTT0=
EXTT1=
EXTT2=
EXTT3=
EXTT4=
EXTT5=
EXTT6=
EXTT7=
EXTT8=
EXTT9=
EXTT10=
EXTT11=
EXTT12=
EXTT13=
PLAYORDER=
